<svg xmlns="http://www.w3.org/2000/svg" viewBox="0 0 192 48" fill="currentColor">
  <g>
    <!-- Toyota Logo Symbol -->
    <path d="M89.7 24.8c0 6.2-4.4 10.4-10.6 10.4-6.3 0-10.7-4.3-10.7-10.4 0-6.2 4.4-10.4 10.7-10.4 6.2 0 10.6 4.2 10.6 10.4zm-17.6 0c0 4.6 2.8 7.6 7 7.6 4.1 0 6.9-3 6.9-7.6 0-4.6-2.8-7.6-6.9-7.6-4.2 0-7 3-7 7.6zm35.1-9.5h3.5l-7.9 19.6h-3.4l-4.8-12.8-4.9 12.8h-3.4l-7.9-19.6h3.5l6.1 15.8 5.1-13.4h2.9l5 13.4 6.2-15.8zm19.3 0h3.7l-9.3 19.6h-3.5l-9.3-19.6h3.7l7.4 15.8 7.3-15.8zm18.8 0h3.3v19.6h-3.3v-8.8h-11.6v8.8h-3.3v-19.6h3.3v8.1h11.6v-8.1zm17.5 0h3.7l-9.3 19.6h-3.5l-9.3-19.6h3.7l7.4 15.8 7.3-15.8z"/>
    <!-- Toyota Ellipse Symbol -->
    <g transform="translate(24, 24)">
      <ellipse cx="0" cy="0" rx="20" ry="12" fill="none" stroke="currentColor" stroke-width="2.5"/>
      <ellipse cx="0" cy="0" rx="12" ry="20" fill="none" stroke="currentColor" stroke-width="2.5"/>
      <ellipse cx="0" cy="0" rx="8" ry="8" fill="none" stroke="currentColor" stroke-width="2.5"/>
    </g>
  </g>
</svg>
